<?xml version="1.0" encoding="UTF-8"?>
<svg version="1.1" xmlns="http://www.w3.org/2000/svg" width="451" height="451">
<path d="M0 0 C0.76302429 -0.00095673 1.52604858 -0.00191345 2.31219482 -0.00289917 C3.93632082 -0.00358104 5.56044952 -0.00172629 7.18457031 0.00244141 C9.62050885 0.00770158 12.05625541 0.00254326 14.4921875 -0.00390625 C40.71215563 -0.01630998 72.9298728 4.38169314 94.421875 21.1328125 C95.04578125 21.43960938 95.6696875 21.74640625 96.3125 22.0625 C98.40116056 23.12230184 100.15801319 24.30563425 102.03125 25.70703125 C103.03333496 26.45533203 103.03333496 26.45533203 104.05566406 27.21875 C104.75401367 27.74726562 105.45236328 28.27578125 106.171875 28.8203125 C107.2542041 29.63822266 107.2542041 29.63822266 108.35839844 30.47265625 C113.2294516 34.17721456 117.98267137 37.91337142 122.421875 42.1328125 C123.33066406 42.9784375 124.23945313 43.8240625 125.17578125 44.6953125 C133.83874724 52.93507957 142.15976544 62.30790141 147.421875 73.1328125 C148.081875 73.7928125 148.741875 74.4528125 149.421875 75.1328125 C151.00474653 77.97555294 152.34949913 80.93934712 153.734375 83.8828125 C154.13519287 84.73302979 154.53601074 85.58324707 154.94897461 86.45922852 C163.421875 104.70209413 163.421875 104.70209413 163.421875 112.1328125 C164.081875 112.4628125 164.741875 112.7928125 165.421875 113.1328125 C166.11978512 115.90021999 166.47387282 118.67809262 166.88427734 121.50195312 C167.22348084 123.79288606 167.57500937 126.08205936 167.94384766 128.3684082 C172.01283057 154.45562206 169.79925854 180.45953284 160.421875 205.1328125 C161.081875 205.4628125 161.741875 205.7928125 162.421875 206.1328125 C161.431875 206.1328125 160.441875 206.1328125 159.421875 206.1328125 C159.24954346 206.68243652 159.07721191 207.23206055 158.8996582 207.79833984 C151.70820207 230.1205817 138.69095025 250.77445886 124.68896484 269.44189453 C123.313694 271.2771789 121.95547341 273.12442694 120.59765625 274.97265625 C113.05477978 285.18766724 105.21320286 295.18669774 96.96166992 304.84130859 C93.74771675 308.52872611 93.74771675 308.52872611 92.421875 313.1328125 C91.431875 313.1328125 90.441875 313.1328125 89.421875 313.1328125 C88.72668198 314.45149703 88.06789696 315.78935507 87.421875 317.1328125 C85.76716093 319.03644082 84.09753012 320.87196529 82.359375 322.6953125 C78.80944457 326.48544642 75.40422645 330.3131281 72.171875 334.3828125 C67.69387065 339.9520273 62.83803934 345.12464629 57.91308594 350.29980469 C54.7592938 353.61738677 51.63742459 356.95889026 48.5859375 360.37109375 C47.74603271 361.30949097 47.74603271 361.30949097 46.88916016 362.2668457 C45.34811116 364.09584283 45.34811116 364.09584283 44.3449707 366.30322266 C43.13565723 368.70010051 41.8130331 369.01633603 39.421875 370.1328125 C37.83351498 371.69599507 37.83351498 371.69599507 36.359375 373.5703125 C33.29657883 377.17554773 30.10822385 380.63073797 26.796875 384.0078125 C25.89710938 384.93335938 24.99734375 385.85890625 24.0703125 386.8125 C20.37426896 390.05062665 17.88821653 391.15947326 12.984375 391.0703125 C8.51927355 389.8952858 6.7754179 388.25770475 3.421875 385.1328125 C2.431875 384.4728125 1.441875 383.8128125 0.421875 383.1328125 C-0.50625154 382.11981303 -1.39981759 381.07456661 -2.265625 380.0078125 C-8.2422671 372.55684048 -8.2422671 372.55684048 -15.8203125 367.02734375 C-16.40039062 366.73214844 -16.98046875 366.43695313 -17.578125 366.1328125 C-17.578125 365.4728125 -17.578125 364.8128125 -17.578125 364.1328125 C-18.86252689 362.49134424 -18.86252689 362.49134424 -20.578125 360.75390625 C-21.21459961 360.08359375 -21.85107422 359.41328125 -22.50683594 358.72265625 C-23.19036133 358.01238281 -23.87388672 357.30210937 -24.578125 356.5703125 C-25.9594508 355.12215882 -27.33966766 353.67294654 -28.71875 352.22265625 C-29.38583984 351.52124512 -30.05292969 350.81983398 -30.74023438 350.09716797 C-33.63059887 347.00791814 -36.36378416 343.79697171 -39.0625 340.5390625 C-40.60006886 338.79273191 -40.60006886 338.79273191 -43.578125 339.1328125 C-43.578125 338.4728125 -43.578125 337.8128125 -43.578125 337.1328125 C-44.238125 336.4728125 -44.898125 335.8128125 -45.578125 335.1328125 C-45.866875 334.4521875 -46.155625 333.7715625 -46.453125 333.0703125 C-47.39283989 330.91490503 -47.39283989 330.91490503 -49.640625 330.6328125 C-50.28 330.4678125 -50.919375 330.3028125 -51.578125 330.1328125 C-51.71992188 329.53726562 -51.86171875 328.94171875 -52.0078125 328.328125 C-52.69445434 325.6850242 -53.79163093 324.49231204 -55.640625 322.5078125 C-58.578125 319.34222426 -58.578125 319.34222426 -58.578125 317.1328125 C-59.238125 317.1328125 -59.898125 317.1328125 -60.578125 317.1328125 C-62.74048248 314.45811945 -64.76063418 311.71949114 -66.76953125 308.9296875 C-69.11601701 305.75876079 -70.90727819 303.63643168 -74.578125 302.1328125 C-74.7225 301.5346875 -74.866875 300.9365625 -75.015625 300.3203125 C-75.87627434 296.97334285 -78.03714807 295.3639142 -80.578125 293.1328125 C-81.238125 293.1328125 -81.898125 293.1328125 -82.578125 293.1328125 C-82.7328125 291.988125 -82.7328125 291.988125 -82.890625 290.8203125 C-83.62523694 287.94864766 -84.2497315 286.90239156 -86.578125 285.1328125 C-87.238125 285.1328125 -87.898125 285.1328125 -88.578125 285.1328125 C-88.908125 285.7928125 -89.238125 286.4528125 -89.578125 287.1328125 C-91.578125 285.1328125 -91.578125 285.1328125 -91.578125 281.1328125 C-90.918125 280.8028125 -90.258125 280.4728125 -89.578125 280.1328125 C-90.33929051 278.98053427 -91.11245193 277.8361739 -91.890625 276.6953125 C-92.31988281 276.05722656 -92.74914062 275.41914063 -93.19140625 274.76171875 C-94.5815302 272.8442441 -94.5815302 272.8442441 -97.578125 272.1328125 C-97.9230395 270.80242801 -98.25329082 269.46824189 -98.578125 268.1328125 C-100.27169585 265.36664678 -101.85855238 262.82470925 -104.203125 260.5703125 C-105.578125 259.1328125 -105.578125 259.1328125 -106.515625 256.7578125 C-108.09111197 252.86543294 -110.63343182 250.07750568 -113.578125 247.1328125 C-113.578125 246.4728125 -113.578125 245.8128125 -113.578125 245.1328125 C-114.20374282 243.86099613 -114.88361426 242.61560216 -115.58984375 241.38671875 C-116.01604004 240.63648438 -116.44223633 239.88625 -116.88134766 239.11328125 C-117.33815918 238.31535156 -117.7949707 237.51742187 -118.265625 236.6953125 C-128.578125 218.42018022 -128.578125 218.42018022 -128.578125 214.1328125 C-129.568125 213.8028125 -130.558125 213.4728125 -131.578125 213.1328125 C-130.918125 213.1328125 -130.258125 213.1328125 -129.578125 213.1328125 C-130.01125 212.07320312 -130.444375 211.01359375 -130.890625 209.921875 C-131.45330635 208.53392767 -132.01579645 207.1459028 -132.578125 205.7578125 C-132.86429688 205.05914062 -133.15046875 204.36046875 -133.4453125 203.640625 C-135.578125 198.359375 -135.578125 198.359375 -135.578125 196.1328125 C-136.238125 195.8028125 -136.898125 195.4728125 -137.578125 195.1328125 C-137.578125 192.79947917 -137.578125 190.46614583 -137.578125 188.1328125 C-138.238125 187.8028125 -138.898125 187.4728125 -139.578125 187.1328125 C-140.04087598 184.67388081 -140.37920902 182.30235281 -140.640625 179.8203125 C-140.72296387 179.09263672 -140.80530273 178.36496094 -140.89013672 177.61523438 C-141.12995955 175.4554042 -141.35542786 173.29446631 -141.578125 171.1328125 C-141.69285156 170.08738281 -141.80757813 169.04195312 -141.92578125 167.96484375 C-143.70690978 149.77726374 -142.24522586 131.79375826 -137.97070312 114.02929688 C-137.48916859 111.7030778 -137.42540241 109.5000126 -137.578125 107.1328125 C-136.918125 107.1328125 -136.258125 107.1328125 -135.578125 107.1328125 C-135.44277344 106.5965625 -135.30742187 106.0603125 -135.16796875 105.5078125 C-133.18216257 98.27805106 -130.26309267 91.58968945 -127.19921875 84.76953125 C-126.25020316 82.64053483 -125.33305299 80.49580223 -124.49609375 78.3203125 C-123.31812439 75.51323658 -121.48614759 73.48604036 -119.578125 71.1328125 C-119.578125 70.4728125 -119.578125 69.8128125 -119.578125 69.1328125 C-118.26925042 67.77546108 -116.92959638 66.44775762 -115.578125 65.1328125 C-113.77663012 63.19197548 -112.188192 61.24890056 -110.578125 59.1328125 C-110.908125 58.4728125 -111.238125 57.8128125 -111.578125 57.1328125 C-110.711875 56.6378125 -109.845625 56.1428125 -108.953125 55.6328125 C-105.37493252 53.29257287 -103.2530774 50.24537679 -100.875 46.7421875 C-99.578125 45.1328125 -99.578125 45.1328125 -97.578125 45.1328125 C-97.578125 44.4728125 -97.578125 43.8128125 -97.578125 43.1328125 C-95.578125 41.79947917 -93.578125 40.46614583 -91.578125 39.1328125 C-91.578125 38.4728125 -91.578125 37.8128125 -91.578125 37.1328125 C-90.918125 36.4728125 -90.258125 35.8128125 -89.578125 35.1328125 C-89.083125 34.1428125 -89.083125 34.1428125 -88.578125 33.1328125 C-87.258125 33.1328125 -85.938125 33.1328125 -84.578125 33.1328125 C-82.00747916 31.45607934 -82.00747916 31.45607934 -79.328125 29.1953125 C-74.53374497 25.42152958 -69.57882504 22.19404103 -64.265625 19.1953125 C-63.60852539 18.81834229 -62.95142578 18.44137207 -62.27441406 18.05297852 C-59.11327078 16.30046685 -56.16350259 14.92414831 -52.66015625 14.00390625 C-49.45821626 13.50889138 -49.45821626 13.50889138 -48.578125 11.1328125 C-45.58709863 9.99078425 -42.6459636 9.04009309 -39.578125 8.1328125 C-38.91973633 7.93751953 -38.26134766 7.74222656 -37.58300781 7.54101562 C-29.03830812 5.02764397 -20.60680031 2.72012851 -11.765625 1.4921875 C-2.6384071 -0.00728401 -2.6384071 -0.00728401 0 0 Z M-57.578125 94.1328125 C-57.578125 94.7928125 -57.578125 95.4528125 -57.578125 96.1328125 C-58.238125 96.1328125 -58.898125 96.1328125 -59.578125 96.1328125 C-61.10185821 98.1654726 -62.47735779 100.17576663 -63.828125 102.3203125 C-64.22854004 102.95308105 -64.62895508 103.58584961 -65.04150391 104.23779297 C-71.09750998 114.00374094 -75.32689486 123.8468442 -77.578125 135.1328125 C-77.78308594 136.09832031 -77.98804688 137.06382812 -78.19921875 138.05859375 C-81.11948034 153.26409373 -79.61870671 167.98423826 -75.140625 182.6953125 C-74.93542236 183.3744873 -74.73021973 184.05366211 -74.51879883 184.75341797 C-73.34530728 188.41111356 -71.99997077 191.16673172 -69.578125 194.1328125 C-69.31 195.0196875 -69.041875 195.9065625 -68.765625 196.8203125 C-66.84586983 202.17541904 -63.60653524 207.10440226 -59.578125 211.1328125 C-58.959375 212.1434375 -58.340625 213.1540625 -57.703125 214.1953125 C-55.45226655 217.30679329 -55.09786379 217.53637141 -51.578125 218.1328125 C-51.78308594 217.25238281 -51.98804688 216.37195313 -52.19921875 215.46484375 C-52.60333984 213.72267578 -52.60333984 213.72267578 -53.015625 211.9453125 C-53.28246094 210.79675781 -53.54929687 209.64820313 -53.82421875 208.46484375 C-54.07300781 207.36527344 -54.32179688 206.26570312 -54.578125 205.1328125 C-54.75593506 204.35993896 -54.93374512 203.58706543 -55.11694336 202.79077148 C-55.61805081 199.90270539 -55.7076509 197.2041447 -55.7109375 194.2734375 C-55.71287109 192.59894531 -55.71287109 192.59894531 -55.71484375 190.890625 C-55.71097656 189.73304688 -55.70710938 188.57546875 -55.703125 187.3828125 C-55.70892578 185.66964844 -55.70892578 185.66964844 -55.71484375 183.921875 C-55.70393833 174.43415551 -55.34856507 165.93050599 -51.578125 157.1328125 C-51.145 156.0396875 -50.711875 154.9465625 -50.265625 153.8203125 C-49.71636431 152.58517298 -49.15217093 151.35662957 -48.578125 150.1328125 C-48.20300781 149.33230469 -47.82789063 148.53179687 -47.44140625 147.70703125 C-41.2506059 135.44960132 -30.76489102 122.4595928 -18.7890625 115.515625 C-18.05945313 115.05929688 -17.32984375 114.60296875 -16.578125 114.1328125 C-16.578125 113.4728125 -16.578125 112.8128125 -16.578125 112.1328125 C-15.85238281 112.01808594 -15.12664062 111.90335938 -14.37890625 111.78515625 C-11.48986308 111.11225498 -9.34756663 110.13828817 -6.765625 108.6953125 C-5.97542969 108.26347656 -5.18523437 107.83164063 -4.37109375 107.38671875 C-3.77941406 106.97292969 -3.18773437 106.55914062 -2.578125 106.1328125 C-2.578125 105.4728125 -2.578125 104.8128125 -2.578125 104.1328125 C-1.794375 104.0503125 -1.010625 103.9678125 -0.203125 103.8828125 C2.76852391 103.26798859 4.98130762 102.54992482 7.734375 101.3828125 C27.13411135 93.29712086 48.8779332 89.35927017 69.53759766 86.09082031 C73.87717708 85.40326353 78.12778652 84.55639888 82.3984375 83.53515625 C85.65829591 82.88696047 88.9472434 82.63639496 92.2578125 82.37890625 C94.60117247 82.18805267 94.60117247 82.18805267 97.421875 81.1328125 C98.98040767 80.91477943 100.54370151 80.72914894 102.109375 80.5703125 C102.91761719 80.48652344 103.72585938 80.40273437 104.55859375 80.31640625 C105.17347656 80.25582031 105.78835938 80.19523437 106.421875 80.1328125 C106.421875 79.4728125 106.421875 78.8128125 106.421875 78.1328125 C107.081875 78.1328125 107.741875 78.1328125 108.421875 78.1328125 C109.93906556 99.44522141 111.20235358 124.5024405 102.734375 144.6953125 C102.38761719 145.52289063 102.04085937 146.35046875 101.68359375 147.203125 C101.26722656 148.16992188 100.85085938 149.13671875 100.421875 150.1328125 C100.16744629 150.73577148 99.91301758 151.33873047 99.65087891 151.95996094 C96.34260015 159.79994278 92.89674054 167.43856893 88.703125 174.85546875 C87.62771454 176.76694528 86.63887785 178.72677099 85.671875 180.6953125 C84.421875 183.1328125 84.421875 183.1328125 82.421875 185.1328125 C82.751875 185.7928125 83.081875 186.4528125 83.421875 187.1328125 C82.84953125 187.20371094 82.2771875 187.27460938 81.6875 187.34765625 C78.57321602 188.42691673 77.29525526 190.19384834 75.171875 192.6953125 C74.37652344 193.60410156 73.58117187 194.51289063 72.76171875 195.44921875 C71.98957031 196.33480469 71.21742188 197.22039062 70.421875 198.1328125 C54.16119646 216.2945307 30.18156111 228.49918077 6.421875 233.1328125 C4.97748047 233.42091797 4.97748047 233.42091797 3.50390625 233.71484375 C-6.44739078 235.46798733 -16.50064066 235.75101349 -26.578125 236.1328125 C-24.73813727 241.65277568 -18.34007542 242.56288776 -13.1484375 244.2421875 C10.2602253 251.18927452 33.86654996 249.05880453 55.796875 238.1953125 C56.45075195 237.87159668 57.10462891 237.54788086 57.77832031 237.21435547 C64.68265727 233.67073882 73.86038915 228.81727004 76.421875 221.1328125 C77.411875 221.1328125 78.401875 221.1328125 79.421875 221.1328125 C79.421875 220.1428125 79.421875 219.1528125 79.421875 218.1328125 C79.97230469 217.87886719 80.52273438 217.62492188 81.08984375 217.36328125 C84.56092251 215.53180753 86.48011428 212.56108162 88.734375 209.4453125 C89.2185791 208.77685303 89.7027832 208.10839355 90.20166016 207.41967773 C99.15703043 194.69338981 105.88902718 178.69711341 107.421875 163.1328125 C107.091875 162.8028125 106.761875 162.4728125 106.421875 162.1328125 C107.411875 160.6478125 107.411875 160.6478125 108.421875 159.1328125 C108.60027934 156.8457273 108.68981631 154.55141258 108.734375 152.2578125 C108.99112817 145.36800173 110.2289076 138.99469382 111.921875 132.3203125 C113.70654739 125.21439233 115.27371755 118.49129902 115.421875 111.1328125 C115.44620605 110.4610498 115.47053711 109.78928711 115.49560547 109.09716797 C116.20600064 91.16625205 116.20600064 91.16625205 111.421875 74.1328125 C103.88114197 74.6272868 96.71894423 76.04582048 89.37573242 77.76074219 C75.65433175 80.84483884 75.65433175 80.84483884 70.046875 76.4453125 C30.76112881 47.93470283 -26.73088528 58.10628315 -57.578125 94.1328125 Z M-52.578125 219.1328125 C-52.248125 220.1228125 -51.918125 221.1128125 -51.578125 222.1328125 C-50.918125 221.8028125 -50.258125 221.4728125 -49.578125 221.1328125 C-49.908125 220.4728125 -50.238125 219.8128125 -50.578125 219.1328125 C-51.238125 219.1328125 -51.898125 219.1328125 -52.578125 219.1328125 Z " fill="#067A32" transform="translate(210.578125,19.8671875)"/>
<path d="M0 0 C0.66 0 1.32 0 2 0 C4.06284705 13.58633745 4.23690224 26.51615699 2.75 40.1875 C2.56775879 41.90598145 2.56775879 41.90598145 2.38183594 43.65917969 C1.63704958 49.88281211 0.50108128 55.24610796 -2 61 C-1.34 61.33 -0.68 61.66 0 62 C-0.99 62.495 -0.99 62.495 -2 63 C-2.68729254 65.11846285 -2.68729254 65.11846285 -3.125 67.5625 C-3.29257812 68.38878906 -3.46015625 69.21507812 -3.6328125 70.06640625 C-3.75398437 70.70449219 -3.87515625 71.34257812 -4 72 C-4.66 72 -5.32 72 -6 72 C-6.12455566 72.73283203 -6.24911133 73.46566406 -6.37744141 74.22070312 C-6.97474026 76.88723258 -7.78644662 79.01138671 -8.9609375 81.46875 C-9.35023438 82.28730469 -9.73953125 83.10585937 -10.140625 83.94921875 C-10.54796875 84.79097656 -10.9553125 85.63273437 -11.375 86.5 C-11.77460938 87.34175781 -12.17421875 88.18351562 -12.5859375 89.05078125 C-18.08826669 100.54413335 -18.08826669 100.54413335 -21 102 C-21 103.32 -21 104.64 -21 106 C-21.99 106.495 -21.99 106.495 -23 107 C-23 107.66 -23 108.32 -23 109 C-24.33217794 109.66897247 -25.66571835 110.33523334 -27 111 C-28.62237113 112.5968084 -28.62237113 112.5968084 -30.125 114.5 C-38.43973601 124.23861258 -47.35118943 131.98632557 -58 139 C-58.96679688 139.639375 -59.93359375 140.27875 -60.9296875 140.9375 C-85.1568564 155.97042475 -110.29058038 157.22197588 -138 157 C-138.32141414 138.31780327 -130.06738169 120.74226519 -119 106 C-118.39414063 105.17242187 -117.78828125 104.34484375 -117.1640625 103.4921875 C-106.17834869 89.29326095 -92.69398073 76.28327227 -78 66 C-76.19388092 64.70981667 -74.3879045 63.41943364 -72.58203125 62.12890625 C-62.34391768 54.86637308 -52.11608477 47.85665472 -41 42 C-54.97718956 47.41699691 -68.80882214 52.84916552 -82 60 C-82.59280762 60.31646484 -83.18561523 60.63292969 -83.79638672 60.95898438 C-111.40680943 75.782767 -136.60848265 97.71979985 -147 128 C-147.8353125 129.7015625 -147.8353125 129.7015625 -148.6875 131.4375 C-150.77590113 137.10601734 -151.29525841 143.02213314 -152 149 C-152.99 148.67 -153.98 148.34 -155 148 C-155.71616526 145.42180507 -156.01058852 142.90682103 -156.3125 140.25 C-156.74313619 137.79038484 -156.74313619 137.79038484 -159.0625 137.1875 C-159.701875 137.125625 -160.34125 137.06375 -161 137 C-160.34 137 -159.68 137 -159 137 C-159.45034123 135.37276701 -159.91055354 133.74826336 -160.375 132.125 C-160.63023437 131.22007812 -160.88546875 130.31515625 -161.1484375 129.3828125 C-161.8604315 126.85430274 -161.8604315 126.85430274 -164 125 C-163.34 125 -162.68 125 -162 125 C-162.33 124.01 -162.66 123.02 -163 122 C-163.23603293 117.77481215 -163.18518667 113.54357312 -163.1875 109.3125 C-163.19974609 108.15298828 -163.21199219 106.99347656 -163.22460938 105.79882812 C-163.23534935 99.50162486 -162.87834302 94.02109164 -161 88 C-161.66 87.67 -162.32 87.34 -163 87 C-162.01 86.505 -162.01 86.505 -161 86 C-160.08514427 83.19521805 -160.08514427 83.19521805 -159.375 79.9375 C-159.11460937 78.83277344 -158.85421875 77.72804688 -158.5859375 76.58984375 C-158.39257812 75.73519531 -158.19921875 74.88054687 -158 74 C-157.34 74 -156.68 74 -156 74 C-155.72929687 73.11441406 -155.45859375 72.22882813 -155.1796875 71.31640625 C-150.77229087 58.92607598 -140.28486633 47.95386722 -130 40 C-129.34 39.34 -128.68 38.68 -128 38 C-126.9790625 37.505 -126.9790625 37.505 -125.9375 37 C-123.83134399 36.15410058 -123.83134399 36.15410058 -123 34 C-121.0556658 32.89467894 -119.06909902 31.86279072 -117.0625 30.875 C-115.98097656 30.33617187 -114.89945313 29.79734375 -113.78515625 29.2421875 C-111 28 -111 28 -109 28 C-109 27.34 -109 26.68 -109 26 C-108.36191406 25.89042969 -107.72382813 25.78085938 -107.06640625 25.66796875 C-105.82697266 25.43013672 -105.82697266 25.43013672 -104.5625 25.1875 C-103.73878906 25.03667969 -102.91507813 24.88585937 -102.06640625 24.73046875 C-99.61860081 24.17088348 -99.61860081 24.17088348 -99 21 C-97.68 21 -96.36 21 -95 21 C-92.82156054 20.43444703 -92.82156054 20.43444703 -90.625 19.625 C-89.83996094 19.35300781 -89.05492187 19.08101562 -88.24609375 18.80078125 C-86.39254052 18.13994923 -84.53989679 17.47656677 -82.6875 16.8125 C-80 16 -80 16 -76 16 C-75.67 15.34 -75.34 14.68 -75 14 C-72.97070312 13.45507812 -72.97070312 13.45507812 -70.28125 13.03125 C-69.28351563 12.86625 -68.28578125 12.70125 -67.2578125 12.53125 C-66.18273437 12.3559375 -65.10765625 12.180625 -64 12 C-61.80107624 11.59923692 -59.60317086 11.1928511 -57.40625 10.78125 C-55.70662109 10.46607422 -55.70662109 10.46607422 -53.97265625 10.14453125 C-52.82667969 9.93183594 -51.68070312 9.71914062 -50.5 9.5 C-48.1979503 9.07273543 -45.89586733 8.64565003 -43.59375 8.21875 C-42.48902344 8.01378906 -41.38429688 7.80882813 -40.24609375 7.59765625 C-36.27406205 6.86634355 -32.29880984 6.15360568 -28.32226562 5.44726562 C-26.01342247 5.03189402 -26.01342247 5.03189402 -23.83398438 4.41601562 C-21.60100172 3.9094924 -20.155457 4.30717453 -18 5 C-17.67 4.34 -17.34 3.68 -17 3 C-15.33391013 2.95615553 -13.66619446 2.9603287 -12 3 C-11.01 2.67 -10.02 2.34 -9 2 C-7.43881572 1.93259135 -5.8749748 1.91485544 -4.3125 1.9375 C-3.10013672 1.95103516 -3.10013672 1.95103516 -1.86328125 1.96484375 C-0.94095703 1.98224609 -0.94095703 1.98224609 0 2 C0 1.34 0 0.68 0 0 Z " fill="#50A744" transform="translate(317,98)"/>
<path d="M0 0 C5.72862618 1.23558604 7.80102706 2.75155463 12 7 C14.06035648 8.44988048 16.14611952 9.86403134 18.25 11.25 C33.26721237 21.63099889 47.87562748 36.4867405 56 53 C56.66 53.66 57.32 54.32 58 55 C59.58287153 57.84274044 60.92762413 60.80653462 62.3125 63.75 C62.71331787 64.60021729 63.11413574 65.45043457 63.52709961 66.32641602 C72 84.56928163 72 84.56928163 72 92 C72.66 92.33 73.32 92.66 74 93 C74.69791012 95.76740749 75.05199782 98.54528012 75.46240234 101.36914062 C75.80160584 103.66007356 76.15313437 105.94924686 76.52197266 108.2355957 C80.59095557 134.32280956 78.37738354 160.32672034 69 185 C69.66 185.33 70.32 185.66 71 186 C70.01 186 69.02 186 68 186 C67.01 188.97 66.02 191.94 65 195 C64.34 194.67 63.68 194.34 63 194 C63.18103271 193.40429199 63.36206543 192.80858398 63.54858398 192.19482422 C65.46320022 185.85869302 67.29840346 179.50462278 69.0625 173.125 C69.31837891 172.22136719 69.57425781 171.31773437 69.83789062 170.38671875 C73.34671634 157.66835305 74.40712284 145.56061302 74.375 132.4375 C74.37478851 131.64041626 74.37457703 130.84333252 74.37435913 130.02209473 C74.34225221 117.89937421 73.53115663 106.65915337 70 95 C69.62046224 93.6151118 69.24287037 92.2296889 68.8671875 90.84375 C66.21867766 81.43524471 62.47852455 72.67396212 58 64 C57.65952637 63.33967773 57.31905273 62.67935547 56.96826172 61.99902344 C45.90636511 40.84815013 28.82960482 18.91480241 7 8 C7 7.01 7 6.02 7 5 C6.030625 4.9175 5.06125 4.835 4.0625 4.75 C1 4 1 4 0.125 1.9375 C0.08375 1.298125 0.0425 0.65875 0 0 Z " fill="#0B4D1E" transform="translate(302,40)"/>
<path d="M0 0 C2.56268974 2.56268974 3.05976424 4.79390177 4.125 8.25 C4.47820312 9.36890625 4.83140625 10.4878125 5.1953125 11.640625 C5.97670112 14.90273283 6.15172369 17.66207892 6 21 C6.66 21 7.32 21 8 21 C8.86279297 22.50268555 8.86279297 22.50268555 9.7421875 24.63671875 C10.08008301 25.43158691 10.41797852 26.22645508 10.76611328 27.04541016 C11.1320459 27.9172998 11.49797852 28.78918945 11.875 29.6875 C17.97423726 43.72309418 25.29492873 57.43216392 34.3828125 69.78125 C36.23010839 72.31570427 37.91981346 74.93042783 39.625 77.5625 C44.53750227 84.96933481 49.98576915 91.95201689 55.43212891 98.97070312 C56.84549578 100.80002505 58.24490814 102.63863155 59.63671875 104.484375 C64.89367014 111.43961345 70.42464262 118.08493152 76.13671875 124.66796875 C78.61979412 127.53720938 81.00709291 130.47212471 83.375 133.4375 C88.71283918 140.01759994 94.56689911 146.10563222 100.37548828 152.26660156 C104.46044893 156.62536631 108.5029099 161.0443248 112.35864258 165.6081543 C117.63193723 171.78738014 123.34840356 177.50031073 129.09936523 183.22973633 C130.82980137 184.95474713 132.5547449 186.68512428 134.27929688 188.41601562 C135.37988729 189.51594633 136.48078728 190.61556738 137.58203125 191.71484375 C138.35387505 192.48972389 138.35387505 192.48972389 139.14131165 193.28025818 C141.81733759 195.9762919 141.81733759 195.9762919 145 198 C145 198.66 145 199.32 145 200 C146.96672915 201.1500831 146.96672915 201.1500831 149 202 C144.25113649 202 143.46016266 201.01655206 140 198 C139.01 197.34 138.02 196.68 137 196 C136.07187346 194.98700053 135.17830741 193.94175411 134.3125 192.875 C128.3358579 185.42402798 128.3358579 185.42402798 120.7578125 179.89453125 C120.17773438 179.59933594 119.59765625 179.30414063 119 179 C119 178.34 119 177.68 119 177 C117.71559811 175.35853174 117.71559811 175.35853174 116 173.62109375 C115.36352539 172.95078125 114.72705078 172.28046875 114.07128906 171.58984375 C113.38776367 170.87957031 112.70423828 170.16929687 112 169.4375 C110.6186742 167.98934632 109.23845734 166.54013404 107.859375 165.08984375 C107.19228516 164.38843262 106.52519531 163.68702148 105.83789062 162.96435547 C102.94752613 159.87510564 100.21434084 156.66415921 97.515625 153.40625 C95.97805614 151.65991941 95.97805614 151.65991941 93 152 C93 151.34 93 150.68 93 150 C92.34 149.34 91.68 148.68 91 148 C90.71125 147.319375 90.4225 146.63875 90.125 145.9375 C89.18528511 143.78209253 89.18528511 143.78209253 86.9375 143.5 C86.298125 143.335 85.65875 143.17 85 143 C84.78730469 142.10667969 84.78730469 142.10667969 84.5703125 141.1953125 C83.88367066 138.5522117 82.78649407 137.35949954 80.9375 135.375 C78 132.20941176 78 132.20941176 78 130 C77.34 130 76.68 130 76 130 C73.83764252 127.32530695 71.81749082 124.58667864 69.80859375 121.796875 C67.46210799 118.62594829 65.67084681 116.50361918 62 115 C61.855625 114.401875 61.71125 113.80375 61.5625 113.1875 C60.70185066 109.84053035 58.54097693 108.2311017 56 106 C55.34 106 54.68 106 54 106 C53.8453125 104.8553125 53.8453125 104.8553125 53.6875 103.6875 C52.95288806 100.81583516 52.3283935 99.76957906 50 98 C49.34 98 48.68 98 48 98 C47.67 98.66 47.34 99.32 47 100 C45 98 45 98 45 94 C45.66 93.67 46.32 93.34 47 93 C46.23883449 91.84772177 45.46567307 90.7033614 44.6875 89.5625 C44.25824219 88.92441406 43.82898438 88.28632813 43.38671875 87.62890625 C41.9965948 85.7114316 41.9965948 85.7114316 39 85 C38.6550855 83.66961551 38.32483418 82.33542939 38 81 C36.30642915 78.23383428 34.71957262 75.69189675 32.375 73.4375 C31 72 31 72 30.0625 69.625 C28.48701303 65.73262044 25.94469318 62.94469318 23 60 C23 59.34 23 58.68 23 58 C22.37438218 56.72818363 21.69451074 55.48278966 20.98828125 54.25390625 C20.56208496 53.50367188 20.13588867 52.7534375 19.69677734 51.98046875 C19.23996582 51.18253906 18.7831543 50.38460937 18.3125 49.5625 C8 31.28736772 8 31.28736772 8 27 C7.01 26.67 6.02 26.34 5 26 C5.66 26 6.32 26 7 26 C6.566875 24.94039062 6.13375 23.88078125 5.6875 22.7890625 C5.12481865 21.40111517 4.56232855 20.0130903 4 18.625 C3.71382813 17.92632812 3.42765625 17.22765625 3.1328125 16.5078125 C1 11.2265625 1 11.2265625 1 9 C0.34 8.67 -0.32 8.34 -1 8 C-1.3559322 1.3559322 -1.3559322 1.3559322 0 0 Z " fill="#0A491B" transform="translate(74,207)"/>
<path d="M0 0 C3.53122959 0.56337938 6.12579971 1.43633359 9.1796875 3.28515625 C9.94410156 3.73310547 10.70851563 4.18105469 11.49609375 4.64257812 C13.07800267 5.58678813 14.6561723 6.53729212 16.23046875 7.49414062 C25.8226544 13.08017815 33.58624421 10.34404382 43.81835938 7.77734375 C49.37919745 6.43599756 54.27860152 5.72980409 60 6 C63.91048136 15.52117202 64.19414706 24.35409572 64.1875 34.5625 C64.18741943 35.71476074 64.18733887 36.86702148 64.18725586 38.05419922 C64.13052115 46.55007253 63.43733322 54.62112728 62 63 C61.8242685 64.54065971 61.65598005 66.08221547 61.5 67.625 C61 71 61 71 60.03125 73.1796875 C58.6617097 76.92517272 58.3670692 80.54704299 58 84.5 C57.83106717 86.12126548 57.66048487 87.74235991 57.48828125 89.36328125 C57.36380615 90.55171631 57.36380615 90.55171631 57.23681641 91.76416016 C56.06705369 102.80816729 54.01736463 113.96527075 49 124 C48.34 124 47.68 124 47 124 C46.855625 124.94875 46.71125 125.8975 46.5625 126.875 C46 130 46 130 45 132 C44.01 131.67 43.02 131.34 42 131 C42.3609375 130.22914063 42.721875 129.45828125 43.09375 128.6640625 C43.5578125 127.66117187 44.021875 126.65828125 44.5 125.625 C45.19609375 124.12839844 45.19609375 124.12839844 45.90625 122.6015625 C47.1291873 120.16307374 47.1291873 120.16307374 47 118 C47.66 118 48.32 118 49 118 C49.33 116.35 49.66 114.7 50 113 C49.01 112.67 48.02 112.34 47 112 C48.32 112 49.64 112 51 112 C51.185625 110.2365625 51.185625 110.2365625 51.375 108.4375 C51.86435935 104.45879574 52.8055205 100.82233441 54 97 C53.34 97 52.68 97 52 97 C52.32355469 96.48308594 52.64710938 95.96617187 52.98046875 95.43359375 C54.32237615 92.23049679 54.24442345 89.53440394 54.3125 86.0625 C54.57008548 79.19543207 55.81391311 72.84008368 57.5 66.1875 C59.28392407 59.08392949 60.86174188 52.35730697 61 45 C61.02852051 43.99235596 61.02852051 43.99235596 61.05761719 42.96435547 C61.34923728 31.79913042 60.70473823 21.03513584 59 10 C52.79998873 8.20864726 47.22413475 10.01486382 41.125 11.4375 C22.3260695 15.7854735 22.3260695 15.7854735 16.625 11.3125 C12.57192501 8.3204394 8.44761553 6.16786097 3.87109375 4.078125 C3.25363281 3.72234375 2.63617188 3.3665625 2 3 C2 2.34 2 1.68 2 1 C1.34 0.67 0.68 0.34 0 0 Z " fill="#0E5520" transform="translate(264,86)"/>
<path d="M0 0 C0.99 0.99 0.99 0.99 2 2 C-6.05005315 20.62512298 -16.5610417 38.0815568 -28.73291016 54.30908203 C-30.108181 56.1443664 -31.46640159 57.99161444 -32.82421875 59.83984375 C-40.36709522 70.05485474 -48.20867214 80.05388524 -56.46020508 89.70849609 C-59.67415825 93.39591361 -59.67415825 93.39591361 -61 98 C-61.99 98 -62.98 98 -64 98 C-64.69519302 99.31868453 -65.35397804 100.65654257 -66 102 C-67.6547073 103.90362053 -69.32436542 105.73914534 -71.0625 107.5625 C-74.65112328 111.39465791 -78.09644611 115.26920432 -81.375 119.375 C-86.89441962 126.24160037 -92.95444802 132.59937696 -99 139 C-99.66 138.34 -100.32 137.68 -101 137 C-99.85724609 135.78376953 -99.85724609 135.78376953 -98.69140625 134.54296875 C-93.00843567 128.4604143 -87.54835889 122.30355811 -82.33984375 115.8046875 C-79.6916477 112.63038906 -76.89705454 109.63184748 -74.0625 106.625 C-69.61746336 101.89293779 -65.55043634 97.00349891 -61.65527344 91.81176758 C-58.82259884 88.03961582 -55.867323 84.40657978 -52.8125 80.8125 C-49.00931757 76.31456298 -45.59848872 71.69384334 -42.375 66.765625 C-41 65 -41 65 -39 65 C-38.75121094 64.28328125 -38.50242187 63.5665625 -38.24609375 62.828125 C-36.86875769 59.70213345 -35.17920563 57.42937421 -33.0625 54.75 C-23.00454549 41.67651675 -14.80875785 27.49622373 -7 13 C-6.27358303 11.65877534 -5.54702671 10.31762614 -4.8203125 8.9765625 C-3.20465966 5.98909927 -1.59884037 2.99650214 0 0 Z " fill="#0A4519" transform="translate(364,235)"/>
<path d="M0 0 C0.67605286 -0.00208466 1.35210571 -0.00416931 2.04864502 -0.00631714 C13.5590581 -0.0022946 13.5590581 -0.0022946 17.125 2.375 C13.79698151 3.62300693 11.06628393 3.11589746 7.6171875 2.6484375 C-8.50168524 0.87990914 -24.69824037 4.08877352 -39.5390625 10.421875 C-41.875 11.375 -41.875 11.375 -43.875 11.375 C-44.205 12.035 -44.535 12.695 -44.875 13.375 C-46.30989642 14.11016298 -47.77430566 14.78810138 -49.25 15.4375 C-58.15749784 19.76399895 -70.31557632 28.25615263 -74.875 37.375 C-75.535 37.375 -76.195 37.375 -76.875 37.375 C-77.59742615 38.67896422 -78.25190924 40.02075477 -78.875 41.375 C-79.84352622 42.98561324 -80.82344611 44.58941037 -81.8125 46.1875 C-83.6520176 49.21308126 -85.30164186 52.15285723 -86.625 55.4375 C-87.875 58.375 -87.875 58.375 -89.875 59.375 C-90.71681926 61.81558982 -90.71681926 61.81558982 -91.375 64.6875 C-92.23133568 68.17334469 -93.13909362 71.2249285 -94.875 74.375 C-98.57619924 62.96296902 -87.38245044 48.12019179 -81.22265625 38.90234375 C-79.875 37.375 -79.875 37.375 -77.875 37.375 C-77.61074219 36.83101562 -77.34648437 36.28703125 -77.07421875 35.7265625 C-67.40650815 16.76903226 -38.64350906 3.70674816 -18.69335938 0.66357422 C-12.48000112 0.02738317 -6.2402803 0.00803184 0 0 Z " fill="#0C4A1C" transform="translate(227.875,78.625)"/>
<path d="M0 0 C5.72862618 1.23558604 7.80102706 2.75155463 12 7 C14.06035648 8.44988048 16.14611952 9.86403134 18.25 11.25 C33.26721237 21.63099889 47.87562748 36.4867405 56 53 C56.66 53.66 57.32 54.32 58 55 C59.58287153 57.84274044 60.92762413 60.80653462 62.3125 63.75 C62.71331787 64.60021729 63.11413574 65.45043457 63.52709961 66.32641602 C72 84.56928163 72 84.56928163 72 92 C72.66 92.33 73.32 92.66 74 93 C73.34 93.99 72.68 94.98 72 96 C71.71334473 95.10861328 71.71334473 95.10861328 71.42089844 94.19921875 C70.53715616 91.46397792 69.643651 88.73201876 68.75 86 C68.29947266 84.59814453 68.29947266 84.59814453 67.83984375 83.16796875 C65.21367716 75.17771721 62.35966122 68.52480497 57 62 C55.7580836 59.85240657 54.55205668 57.6838158 53.375 55.5 C43.00596516 36.97707784 26.29544889 17.64772445 7 8 C7 7.01 7 6.02 7 5 C6.030625 4.9175 5.06125 4.835 4.0625 4.75 C1 4 1 4 0.125 1.9375 C0.08375 1.298125 0.0425 0.65875 0 0 Z " fill="#093E17" transform="translate(302,40)"/>
<path d="M0 0 C0.66 0.33 1.32 0.66 2 1 C0.01788608 4.45802643 -2.13628101 7.50414215 -4.6875 10.5625 C-19.55766158 29.00041097 -30.44541073 51.43307314 -34 75 C-34.66 75 -35.32 75 -36 75 C-35.37802877 68.66118686 -34.71457113 62.32905858 -34 56 C-33.34 56 -32.68 56 -32 56 C-31.86464844 55.46375 -31.72929688 54.9275 -31.58984375 54.375 C-29.60403757 47.14523856 -26.68496767 40.45687695 -23.62109375 33.63671875 C-22.67207816 31.50772233 -21.75492799 29.36298973 -20.91796875 27.1875 C-19.73999939 24.38042408 -17.90802259 22.35322786 -16 20 C-16 19.34 -16 18.68 -16 18 C-14.69112542 16.64264858 -13.35147138 15.31494512 -12 14 C-10.19850512 12.05916298 -8.610067 10.11608806 -7 8 C-7.33 7.34 -7.66 6.68 -8 6 C-6.576875 5.071875 -6.576875 5.071875 -5.125 4.125 C-2.05554891 2.18029031 -2.05554891 2.18029031 0 0 Z " fill="#094618" transform="translate(107,71)"/>
<path d="M0 0 C0.33 0 0.66 0 1 0 C1.12117187 1.07121094 1.24234375 2.14242187 1.3671875 3.24609375 C1.53597601 4.64328752 1.70527313 6.04041991 1.875 7.4375 C1.95363281 8.14455078 2.03226563 8.85160156 2.11328125 9.58007812 C2.33927676 11.39673432 2.66300727 13.20062522 3 15 C3.66 15.33 4.32 15.66 5 16 C5 17.32 5 18.64 5 20 C5.60411672 21.73144166 6.27580766 23.440247 7 25.125 C9 29.80555556 9 29.80555556 9 32 C9.66 32.33 10.32 32.66 11 33 C11.4021875 34.2684375 11.4021875 34.2684375 11.8125 35.5625 C13.76454549 41.21315801 16.77920281 45.80171373 21 50 C21.66 51.03125 22.32 52.0625 23 53.125 C24.747226 56.24807123 24.747226 56.24807123 28 57 C28.33 56.34 28.66 55.68 29 55 C29.33 56.65 29.66 58.3 30 60 C29.67 59.34 29.34 58.68 29 58 C28.67 58.99 28.34 59.98 28 61 C28.66 61 29.32 61 30 61 C29.67 61.66 29.34 62.32 29 63 C16.28702977 57.55963802 8.97416862 39.8978673 4 28 C3.58363281 27.03320312 3.16726562 26.06640625 2.73828125 25.0703125 C-0.50187012 16.68002579 -0.4040297 8.84376122 0 0 Z " fill="#0E491D" transform="translate(131,181)"/>
<path d="M0 0 C2.43980362 0.01829304 4.87922656 0.02050886 7.3190918 0.02026367 C8.89266274 0.02517936 10.46623114 0.0310079 12.03979492 0.0378418 C12.7577272 0.03895462 13.47565948 0.04006744 14.21534729 0.04121399 C19.00959322 0.08547222 23.63113582 0.53764098 28.37963867 1.20581055 C28.37963867 1.53581055 28.37963867 1.86581055 28.37963867 2.20581055 C23.82404541 3.08432631 19.39600415 3.36776003 14.77026367 3.41674805 C13.28644433 3.44256668 11.80263912 3.46920809 10.31884766 3.49658203 C9.55192596 3.50986542 8.78500427 3.5231488 7.99484253 3.53683472 C-5.12268827 3.78072672 -17.77235581 4.34745745 -30.62036133 7.20581055 C-32.6615964 7.60386352 -34.70319818 8.00004667 -36.74536133 8.39331055 C-38.66348633 8.79549805 -38.66348633 8.79549805 -40.62036133 9.20581055 C-40.95036133 8.21581055 -41.28036133 7.22581055 -41.62036133 6.20581055 C-38.9746977 5.58008528 -36.3288364 4.95521638 -33.68286133 4.33081055 C-32.94745117 4.15678711 -32.21204102 3.98276367 -31.4543457 3.8034668 C-29.93303244 3.44472917 -28.4102508 3.09217448 -26.88623047 2.74511719 C-25.47561955 2.40937325 -24.07136879 2.0437731 -22.68066406 1.63330078 C-15.2675553 -0.40229196 -7.62270481 -0.05913836 0 0 Z " fill="#093F17" transform="translate(218.620361328125,19.794189453125)"/>
<path d="M0 0 C-0.48243164 0.28609131 -0.96486328 0.57218262 -1.46191406 0.86694336 C-27.78165539 16.53926675 -48.31220029 34.4319521 -64 61 C-65 59 -65 59 -63.91796875 56.63671875 C-52.55871799 37.27727332 -37.84906416 21.22933559 -19 9 C-18.30068359 8.53625977 -17.60136719 8.07251953 -16.88085938 7.59472656 C-14.70092552 6.15203824 -12.5098619 4.72847832 -10.3125 3.3125 C-9.62873291 2.86543701 -8.94496582 2.41837402 -8.24047852 1.95776367 C-3.35020817 -1.11673606 -3.35020817 -1.11673606 0 0 Z " fill="#62B749" transform="translate(236,157)"/>
<path d="M0 0 C-1.29097861 4.73358822 -4.03841543 7.22719461 -7.5390625 10.44921875 C-9.22856925 11.8875333 -9.22856925 11.8875333 -9 14 C-10.33160325 14.67011567 -11.66524218 15.33618996 -13 16 C-14.58836002 17.56318257 -14.58836002 17.56318257 -16.0625 19.4375 C-19.11850115 23.02698411 -22.27832431 26.49378805 -25.5625 29.875 C-26.45066406 30.80054688 -27.33882812 31.72609375 -28.25390625 32.6796875 C-31.16069009 35.13577512 -33.27728756 36.25859023 -37 37 C-37.66 36.34 -38.32 35.68 -39 35 C-37.865625 34.731875 -36.73125 34.46375 -35.5625 34.1875 C-31.69791667 33.42708333 -31.69791667 33.42708333 -31 30 C-30.29875 29.443125 -29.5975 28.88625 -28.875 28.3125 C-26.49541086 26.39848265 -24.76945251 24.67430354 -22.8125 22.375 C-19.2337565 18.18030718 -15.3643449 14.34354696 -11.4375 10.4765625 C-8.58469194 7.57803636 -5.95668295 4.53865763 -3.375 1.3984375 C-2 0 -2 0 0 0 Z " fill="#0B451C" transform="translate(263,374)"/>
<path d="M0 0 C0.66 0 1.32 0 2 0 C2.01981934 0.82910889 2.03963867 1.65821777 2.06005859 2.51245117 C2.47496894 19.08708776 3.10704088 35.51471522 5 52 C4.34 52 3.68 52 3 52 C-0.73336876 34.81241552 -2.50357891 17.52505236 0 0 Z " fill="#0D5520" transform="translate(69,154)"/>
<path d="M0 0 C1.01353546 -0.00285507 1.01353546 -0.00285507 2.04754639 -0.00576782 C13.55935773 -0.00209484 13.55935773 -0.00209484 17.125 2.375 C13.79698151 3.62300693 11.06628393 3.11589746 7.6171875 2.6484375 C-8.50168524 0.87990914 -24.69824037 4.08877352 -39.5390625 10.421875 C-41.875 11.375 -41.875 11.375 -43.875 11.375 C-44.205 12.035 -44.535 12.695 -44.875 13.375 C-46.195 13.045 -47.515 12.715 -48.875 12.375 C-35.25757234 1.42392181 -16.72836415 0.00520731 0 0 Z " fill="#0E5A24" transform="translate(227.875,78.625)"/>
<path d="M0 0 C0.495 1.485 0.495 1.485 1 3 C-10.77064813 5.66220918 -21.88505197 7.6686822 -34 7 C-34.33 6.67 -34.66 6.34 -35 6 C-36.258125 6.020625 -37.51625 6.04125 -38.8125 6.0625 C-42.07426001 6.11520348 -44.21451254 5.85699164 -47 4 C-44.42440575 2.71220288 -42.63793761 2.91878375 -39.7578125 2.97265625 C-38.15679687 2.99102539 -38.15679687 2.99102539 -36.5234375 3.00976562 C-34.29680043 3.04431689 -32.07022563 3.08321878 -29.84375 3.12695312 C-21.41888632 3.21240819 -13.57046755 2.18752659 -5.34423828 0.43383789 C-3 0 -3 0 0 0 Z " fill="#0C4A1D" transform="translate(253,264)"/>
<path d="M0 0 C1 3 1 3 0 6 C-1.58147494 6.89387714 -3.16709579 7.78098518 -4.76953125 8.63671875 C-9.55328845 11.56059137 -13.7241792 15.39187494 -18 19 C-19.22861749 20.02149423 -20.45765383 21.0424854 -21.6875 22.0625 C-22.450625 22.701875 -23.21375 23.34125 -24 24 C-24 20 -24 20 -23 18 C-22.34 18 -21.68 18 -21 18 C-21 17.34 -21 16.68 -21 16 C-19 14.66666667 -17 13.33333333 -15 12 C-15 11.34 -15 10.68 -15 10 C-14.34 9.34 -13.68 8.68 -13 8 C-12.67 7.34 -12.34 6.68 -12 6 C-10.68 6 -9.36 6 -8 6 C-5.8023461 4.71359754 -5.8023461 4.71359754 -3.75 3 C-3.04359375 2.443125 -2.3371875 1.88625 -1.609375 1.3125 C-1.07828125 0.879375 -0.5471875 0.44625 0 0 Z " fill="#085119" transform="translate(134,47)"/>
<path d="M0 0 C0 0.66 0 1.32 0 2 C-0.83023682 2.3242395 -0.83023682 2.3242395 -1.67724609 2.6550293 C-15.14401898 7.83019206 -15.14401898 7.83019206 -28.125 14.08984375 C-30.1126741 15.05469389 -31.80506504 15.71191479 -34 16 C-34.66 15.34 -35.32 14.68 -36 14 C-33.41909233 12.68253667 -30.83549542 11.37090383 -28.25 10.0625 C-27.52039063 9.68931641 -26.79078125 9.31613281 -26.0390625 8.93164062 C-25.33007812 8.57392578 -24.62109375 8.21621094 -23.890625 7.84765625 C-23.24125977 7.51773682 -22.59189453 7.18781738 -21.92285156 6.84790039 C-20 6 -20 6 -17.81933594 5.50952148 C-15.78195289 5.18114099 -15.78195289 5.18114099 -15 3 C-13.0390625 2.18359375 -13.0390625 2.18359375 -10.625 1.4375 C-9.83351562 1.18871094 -9.04203125 0.93992187 -8.2265625 0.68359375 C-7.49179688 0.45800781 -6.75703125 0.23242188 -6 0 C-3 -1 -3 -1 0 0 Z " fill="#094519" transform="translate(177,28)"/>
<path d="M0 0 C0 3.95454049 -0.96960699 3.7488509 -4 6 C-5.00568242 7.66324401 -6.00664799 9.32936253 -7 11 C-7.66 11 -8.32 11 -9 11 C-9 11.66 -9 12.32 -9 13 C-9.57234375 13.06960937 -10.1446875 13.13921875 -10.734375 13.2109375 C-20.94059894 16.76551894 -28.80979531 35.97123843 -32 45.4375 C-32.33 46.613125 -32.66 47.78875 -33 49 C-34.45606519 44.47907032 -33.27032841 41.48351204 -32 37 C-31.34 37 -30.68 37 -30 37 C-29.72929687 36.11441406 -29.45859375 35.22882813 -29.1796875 34.31640625 C-24.77229087 21.92607598 -14.28486633 10.95386722 -4 3 C-3.34 2.34 -2.68 1.68 -2 1 C-1.34 0.67 -0.68 0.34 0 0 Z " fill="#1E4219" transform="translate(191,135)"/>
<path d="M0 0 C0.66 0 1.32 0 2 0 C2.85829804 5.43346305 3.33180308 10.82067506 3.625 16.3125 C3.67003662 17.1475708 3.71507324 17.9826416 3.76147461 18.84301758 C4.03452852 24.67592597 3.85421073 30.21034948 3 36 C2.67 36 2.34 36 2 36 C0.92580848 25.31563078 0.89805806 14.72655709 1 4 C0.35933594 4.144375 -0.28132813 4.28875 -0.94140625 4.4375 C-13.66423358 7.16788321 -13.66423358 7.16788321 -18 5 C-17.67 4.34 -17.34 3.68 -17 3 C-15.33391013 2.95615553 -13.66619446 2.9603287 -12 3 C-11.01 2.67 -10.02 2.34 -9 2 C-7.43881572 1.93259135 -5.8749748 1.91485544 -4.3125 1.9375 C-3.10013672 1.95103516 -3.10013672 1.95103516 -1.86328125 1.96484375 C-0.94095703 1.98224609 -0.94095703 1.98224609 0 2 C0 1.34 0 0.68 0 0 Z " fill="#245D25" transform="translate(317,98)"/>
<path d="M0 0 C0.66 0.33 1.32 0.66 2 1 C2 7.19835564 -6.06153377 11.59571339 -10.75 14.9921875 C-17.33845631 19.2472322 -17.33845631 19.2472322 -20.2890625 18.14453125 C-20.85367187 17.76683594 -21.41828125 17.38914062 -22 17 C-21.32453125 16.60167969 -20.6490625 16.20335937 -19.953125 15.79296875 C-19.06109375 15.26316406 -18.1690625 14.73335937 -17.25 14.1875 C-16.36828125 13.66542969 -15.4865625 13.14335937 -14.578125 12.60546875 C-12.00719234 11.06402079 -12.00719234 11.06402079 -9.796875 9.30078125 C-8 8 -8 8 -6 8 C-5.67 7.01 -5.34 6.02 -5 5 C-3.37347684 3.29413425 -1.70993434 1.6222454 0 0 Z " fill="#0A4617" transform="translate(287,241)"/>
<path d="M0 0 C2.97 0.33 5.94 0.66 9 1 C9 1.66 9 2.32 9 3 C14.43259231 5.71629615 20.17067656 7.34620804 26 9 C21.60804449 11.92797034 18.75805044 10.62900647 13.96484375 8.9140625 C12.46630859 8.27597656 12.46630859 8.27597656 10.9375 7.625 C9.93589844 7.20476562 8.93429688 6.78453125 7.90234375 6.3515625 C5.11963011 5.05570931 2.53191315 3.73749636 0 2 C0 1.34 0 0.68 0 0 Z " fill="#0B471A" transform="translate(178,256)"/>
<path d="M0 0 C0.66 0 1.32 0 2 0 C1.45767722 4.35430174 -0.06691269 6.89086678 -2.6875 10.375 C-3.76064453 11.80392578 -3.76064453 11.80392578 -4.85546875 13.26171875 C-7.47394052 16.60515903 -10.17880566 19.82615636 -13 23 C-13.66 22.67 -14.32 22.34 -15 22 C-15 17.75125826 -13.00795745 16.90293101 -10 14 C-8.38079165 11.96554306 -6.7971923 9.90224799 -5.25 7.8125 C-4.47140625 6.76707031 -3.6928125 5.72164062 -2.890625 4.64453125 C-1.02556211 2.18143795 -1.02556211 2.18143795 0 0 Z " fill="#0B4A1B" transform="translate(305,219)"/>
<path d="M0 0 C0.92238937 2.4904513 1.17826229 3.59624354 0.0859375 6.0703125 C-1.66228467 10.7867392 -1.78736824 15.68513918 -2.2109375 20.66992188 C-2.79579447 26.79579447 -2.79579447 26.79579447 -5 29 C-6.2323498 25.30295061 -5.94200039 22.07099219 -5.6875 18.25 C-5.65205078 17.5590625 -5.61660156 16.868125 -5.58007812 16.15625 C-5.28751747 11.51021208 -4.4217535 7.43354969 -3 3 C-2.01 3 -1.02 3 0 3 C0 2.01 0 1.02 0 0 Z " fill="#125A24" transform="translate(324,153)"/>
<path d="M0 0 C-0.59453303 16.8929385 -0.59453303 16.8929385 -4 24 C-3.34 24.33 -2.68 24.66 -2 25 C-2.66 25.33 -3.32 25.66 -4 26 C-4.66 26.99 -5.32 27.98 -6 29 C-6.26475595 22.8337486 -5.26083443 17.16228348 -4.0625 11.125 C-3.78889648 9.68253906 -3.78889648 9.68253906 -3.50976562 8.2109375 C-1.91512734 0 -1.91512734 0 0 0 Z " fill="#296528" transform="translate(319,135)"/>
<path d="M0 0 C0 0.66 0 1.32 0 2 C-1.258125 2.185625 -2.51625 2.37125 -3.8125 2.5625 C-4.87404297 2.71912109 -4.87404297 2.71912109 -5.95703125 2.87890625 C-8 3 -8 3 -11 2 C-11 2.66 -11 3.32 -11 4 C-12.91344374 4.39111271 -14.83096553 4.76231167 -16.75 5.125 C-17.81734375 5.33382812 -18.8846875 5.54265625 -19.984375 5.7578125 C-23.22963827 6.01844245 -24.25136002 5.54027561 -27 4 C-23.62678224 3.32409812 -20.25117758 2.66094482 -16.875 2 C-15.92367188 1.80921875 -14.97234375 1.6184375 -13.9921875 1.421875 C-9.26361884 0.50243109 -4.84437265 -0.2609763 0 0 Z " fill="#285323" transform="translate(280,106)"/>
<path d="M0 0 C3.33134241 1.40495745 5.09333146 2.98854968 7.25 5.875 C7.77078125 6.55304688 8.2915625 7.23109375 8.828125 7.9296875 C10 10 10 10 10 14 C9.34 14.66 8.68 15.32 8 16 C7.67 16.66 7.34 17.32 7 18 C5 16 5 16 5 12 C5.66 11.67 6.32 11.34 7 11 C6.23883449 9.84772177 5.46567307 8.7033614 4.6875 7.5625 C4.25824219 6.92441406 3.82898438 6.28632813 3.38671875 5.62890625 C1.9965948 3.7114316 1.9965948 3.7114316 -1 3 C-0.67 2.01 -0.34 1.02 0 0 Z " fill="#084117" transform="translate(114,289)"/>
<path d="M0 0 C0.33 0 0.66 0 1 0 C1.12117187 1.07121094 1.24234375 2.14242187 1.3671875 3.24609375 C1.53597601 4.64328752 1.70527313 6.04041991 1.875 7.4375 C1.95363281 8.14455078 2.03226563 8.85160156 2.11328125 9.58007812 C2.33927676 11.39673432 2.66300727 13.20062522 3 15 C3.66 15.33 4.32 15.66 5 16 C5 17.32 5 18.64 5 20 C5.2950051 21.59092035 5.62940505 23.17497145 6 24.75 C6.185625 25.54921875 6.37125 26.3484375 6.5625 27.171875 C6.706875 27.77515625 6.85125 28.3784375 7 29 C4.92133438 26.92133438 4.43077079 25.77893431 3.5 23.0625 C2.54572231 20.28783389 1.66796263 18.50194395 0 16 C-0.14245897 13.23344676 -0.18769445 10.57346694 -0.125 7.8125 C-0.11597656 7.06291016 -0.10695312 6.31332031 -0.09765625 5.54101562 C-0.07412578 3.69387346 -0.03825561 1.84689588 0 0 Z " fill="#0B3D17" transform="translate(131,181)"/>
<path d="M0 0 C-0.78914095 6.78661213 -2.41274811 13.36149367 -4 20 C-4.66 20 -5.32 20 -6 20 C-5.76512289 17.60625246 -5.52665475 15.21300881 -5.28125 12.8203125 C-5.10012072 11.00398831 -4.93238895 9.18625275 -4.78125 7.3671875 C-4.58950865 5.23748889 -4.30240307 3.11682151 -4 1 C-2 0 -2 0 0 0 Z " fill="#0C4E1F" transform="translate(77,126)"/>
<path d="M0 0 C1.33164189 2.66328378 0.65064673 3.42639611 -0.4375 6.125 C-0.72496094 6.84945312 -1.01242187 7.57390625 -1.30859375 8.3203125 C-1.53675781 8.87460938 -1.76492188 9.42890625 -2 10 C-2.66 10 -3.32 10 -4 10 C-4.144375 10.94875 -4.28875 11.8975 -4.4375 12.875 C-5 16 -5 16 -6 18 C-6.99 17.67 -7.98 17.34 -9 17 C-8.6390625 16.22914063 -8.278125 15.45828125 -7.90625 14.6640625 C-7.21015625 13.15972656 -7.21015625 13.15972656 -6.5 11.625 C-6.0359375 10.62726563 -5.571875 9.62953125 -5.09375 8.6015625 C-3.8708127 6.16307374 -3.8708127 6.16307374 -4 4 C-3.34 4 -2.68 4 -2 4 C-2 3.01 -2 2.02 -2 1 C-1.34 0.67 -0.68 0.34 0 0 Z " fill="#105221" transform="translate(315,200)"/>
<path d="M0 0 C1.07636719 0.04833984 2.15273437 0.09667969 3.26171875 0.14648438 C4.38964844 0.20255859 5.51757812 0.25863281 6.6796875 0.31640625 C7.81535156 0.36861328 8.95101562 0.42082031 10.12109375 0.47460938 C12.93255381 0.60455081 15.74368215 0.73952539 18.5546875 0.87890625 C18.5546875 1.20890625 18.5546875 1.53890625 18.5546875 1.87890625 C14.9722496 2.10515607 11.38883649 2.30677806 7.8046875 2.50390625 C6.78890625 2.56835938 5.773125 2.6328125 4.7265625 2.69921875 C3.25703125 2.7765625 3.25703125 2.7765625 1.7578125 2.85546875 C0.85708008 2.90783691 -0.04365234 2.96020508 -0.97167969 3.01416016 C-3.63448197 2.86856279 -5.17603729 2.2358402 -7.4453125 0.87890625 C-4.79709238 -0.44520381 -2.95593056 -0.14001776 0 0 Z " fill="#083417" transform="translate(213.4453125,267.12109375)"/>
<path d="M0 0 C3.93265896 -0.04947698 7.86519714 -0.08575578 11.7980957 -0.10986328 C13.79319618 -0.12485495 15.78820946 -0.15026731 17.78320312 -0.17578125 C19.66362305 -0.18544922 19.66362305 -0.18544922 21.58203125 -0.1953125 C22.73936768 -0.20578613 23.8967041 -0.21625977 25.08911133 -0.22705078 C28 0 28 0 31 2 C27.7056919 3.23536554 25.0313129 2.76572312 21.62109375 2.25 C16.89393862 1.7991238 12.1326127 2.04016668 7.390625 2.16015625 C4.12323215 2.00582087 2.76682711 1.53187929 0 0 Z " fill="#0C4718" transform="translate(214,79)"/>
<path d="M0 0 C2.14811394 3.22217092 2.63793043 5.53699045 3.33984375 9.2578125 C3.89217566 11.39465779 3.89217566 11.39465779 7 12 C7 12.66 7 13.32 7 14 C7.66 14.33 8.32 14.66 9 15 C8.67 16.32 8.34 17.64 8 19 C7.34 19 6.68 19 6 19 C4.87074795 16.75946808 3.88233347 14.5672558 2.9375 12.25 C2.66873047 11.61578125 2.39996094 10.9815625 2.12304688 10.328125 C-0.53060486 3.97524304 -0.53060486 3.97524304 -1 1 C-0.67 0.67 -0.34 0.34 0 0 Z " fill="#115824" transform="translate(133,199)"/>
<path d="M0 0 C0 0.66 0 1.32 0 2 C-2.03955149 2.36615094 -4.08178248 2.71739279 -6.125 3.0625 C-7.83042969 3.35833984 -7.83042969 3.35833984 -9.5703125 3.66015625 C-12.9753892 3.99756134 -15.67178131 3.72330588 -19 3 C-19 2.67 -19 2.34 -19 2 C-18.24074219 1.86722656 -17.48148437 1.73445313 -16.69921875 1.59765625 C-15.70535156 1.42105469 -14.71148437 1.24445313 -13.6875 1.0625 C-12.70136719 0.88847656 -11.71523438 0.71445313 -10.69921875 0.53515625 C-3.5924876 -0.87384833 -3.5924876 -0.87384833 0 0 Z " fill="#1E481C" transform="translate(299,103)"/>
<path d="M0 0 C-0.66 0 -1.32 0 -2 0 C-2 0.66 -2 1.32 -2 2 C-7.75 3.125 -7.75 3.125 -10 2 C-10 2.66 -10 3.32 -10 4 C-14.625 5.25 -14.625 5.25 -18 3 C-16.865625 2.87625 -15.73125 2.7525 -14.5625 2.625 C-10.90251667 2.47477841 -10.90251667 2.47477841 -10 0 C-6.18015204 -0.77811718 -3.73159669 -1.24386556 0 0 Z " fill="#275321" transform="translate(252,112)"/>
<path d="M0 0 C0 3.95454049 -0.96960699 3.7488509 -4 6 C-5.00568242 7.66324401 -6.00664799 9.32936253 -7 11 C-7.66 11 -8.32 11 -9 11 C-9 11.66 -9 12.32 -9 13 C-9.66 13 -10.32 13 -11 13 C-10.690625 12.401875 -10.38125 11.80375 -10.0625 11.1875 C-8.89790296 8.91043228 -8.89790296 8.91043228 -8 6 C-2.91891892 1.45945946 -2.91891892 1.45945946 0 0 Z " fill="#37702B" transform="translate(191,135)"/>
<path d="M0 0 C1.46300982 0.93018526 2.92025579 1.86944027 4.375 2.8125 C5.18710937 3.33457031 5.99921875 3.85664062 6.8359375 4.39453125 C9 6 9 6 11 9 C8 10 8 10 4.9375 7.875 C2.18012752 5.61577879 1.17579337 3.34172852 0 0 Z " fill="#073513" transform="translate(319,51)"/>
<path d="M0 0 C-0.41292607 4.81747086 -2.33871444 6.9489287 -6 10 C-6.99 10 -7.98 10 -9 10 C-7.88321917 8.3278148 -6.75633648 6.66237197 -5.625 5 C-4.99851562 4.071875 -4.37203125 3.14375 -3.7265625 2.1875 C-2 0 -2 0 0 0 Z " fill="#0A3917" transform="translate(307,219)"/>
<path d="M0 0 C0.33 0 0.66 0 1 0 C1.02696365 1.79158489 1.04637917 3.58328473 1.0625 5.375 C1.07410156 6.37273437 1.08570313 7.37046875 1.09765625 8.3984375 C1 11 1 11 0 13 C0.66 13.33 1.32 13.66 2 14 C1.01 14.495 1.01 14.495 0 15 C-0.66 15.99 -1.32 16.98 -2 18 C-2.27560214 11.79895188 -1.22899346 6.06815522 0 0 Z " fill="#31722F" transform="translate(315,146)"/>
<path d="M0 0 C1.55078125 1.11328125 1.55078125 1.11328125 3 3 C2.85546875 5.91796875 2.85546875 5.91796875 2.1875 9.1875 C1.86845703 10.81751953 1.86845703 10.81751953 1.54296875 12.48046875 C1.36378906 13.31191406 1.18460938 14.14335937 1 15 C0.67 15 0.34 15 0 15 C-0.19601608 13.25093341 -0.38147403 11.50068154 -0.5625 9.75 C-0.66691406 8.77546875 -0.77132812 7.8009375 -0.87890625 6.796875 C-0.98974468 4.2368648 -0.77738092 2.41851841 0 0 Z " fill="#0C4D18" transform="translate(131,152)"/>
<path d="M0 0 C1.35304209 4.05912626 0.15216503 5.77149591 -1.4375 9.6875 C-2.14712891 11.45673828 -2.14712891 11.45673828 -2.87109375 13.26171875 C-3.24363281 14.16535156 -3.61617187 15.06898438 -4 16 C-5.27710684 12.16867948 -4.44164418 10.64332645 -3.125 6.875 C-2.75632813 5.79992187 -2.38765625 4.72484375 -2.0078125 3.6171875 C-1 1 -1 1 0 0 Z " fill="#5EB349" transform="translate(170,219)"/>
<path d="M0 0 C2.55698285 3.78667689 2.03499684 7.4122334 1.625 11.75 C1.56828125 12.44738281 1.5115625 13.14476563 1.453125 13.86328125 C1.31232128 15.57639312 1.15754028 17.28834611 1 19 C0.67 19 0.34 19 0 19 C-0.19476139 16.39619004 -0.38108614 13.79224467 -0.5625 11.1875 C-0.61857422 10.44951172 -0.67464844 9.71152344 -0.73242188 8.95117188 C-0.95769724 5.63211484 -1.06255812 3.18767436 0 0 Z " fill="#0B3E17" transform="translate(326,112)"/>
<path d="M0 0 C0.33 0.66 0.66 1.32 1 2 C-0.5778125 2.8971875 -0.5778125 2.8971875 -2.1875 3.8125 C-5.14860478 5.50370009 -8.08360936 7.23249052 -11 9 C-9.13745203 4.65405473 -6.94328014 1.52998549 -2.25 0.25 C-1.13625 0.12625 -1.13625 0.12625 0 0 Z " fill="#5DAD4A" transform="translate(197,134)"/>
<path d="M0 0 C4.85963179 0.60745397 8.7405518 2.72758967 13 5 C11.02 5.99 11.02 5.99 9 7 C8.34 6.01 7.68 5.02 7 4 C5.4840625 3.7525 5.4840625 3.7525 3.9375 3.5 C2.968125 3.335 1.99875 3.17 1 3 C0.67 2.01 0.34 1.02 0 0 Z " fill="#05300E" transform="translate(289,34)"/>
<path d="M0 0 C6.625 0.75 6.625 0.75 10 3 C5.58937864 4.0257259 3.07369424 4.03684712 -1 2 C-0.67 1.34 -0.34 0.68 0 0 Z " fill="#063917" transform="translate(267,26)"/>
<path d="M0 0 C4.85963179 0.60745397 8.7405518 2.72758967 13 5 C12.67 5.66 12.34 6.32 12 7 C7 5 7 5 2 3 C2 2.34 2 1.68 2 1 C1.34 0.67 0.68 0.34 0 0 Z " fill="#0A5427" transform="translate(264,86)"/>
<path d="M0 0 C6.64615385 1.47692308 6.64615385 1.47692308 8.4375 4.125 C8.7159375 5.053125 8.7159375 5.053125 9 6 C8.01 6.495 8.01 6.495 7 7 C7 6.34 7 5.68 7 5 C6.030625 4.9175 5.06125 4.835 4.0625 4.75 C1 4 1 4 0.125 1.9375 C0.08375 1.298125 0.0425 0.65875 0 0 Z " fill="#072F11" transform="translate(302,40)"/>
<path d="M0 0 C2.97 0.33 5.94 0.66 9 1 C8.01 1.495 8.01 1.495 7 2 C7 2.66 7 3.32 7 4 C2.25 3.125 2.25 3.125 0 2 C0 1.34 0 0.68 0 0 Z " fill="#105123" transform="translate(178,256)"/>
<path d="M0 0 C0.66 0.66 1.32 1.32 2 2 C1.34 2 0.68 2 0 2 C0 2.66 0 3.32 0 4 C-2.95664519 5.4783226 -5.74229737 5.06032783 -9 5 C-8.01 4.67 -7.02 4.34 -6 4 C-5.67 3.01 -5.34 2.02 -5 1 C-3.68 1 -2.36 1 -1 1 C-0.67 0.67 -0.34 0.34 0 0 Z " fill="#1F5019" transform="translate(223,118)"/>
<path d="M0 0 C-1.23132258 3.89918817 -2.09546635 5.56833766 -6 7 C-6 3.23835502 -4.1341286 0 0 0 Z " fill="#084C1D" transform="translate(263,374)"/>
<path d="M0 0 C0.33 0 0.66 0 1 0 C0.88541307 1.43836751 0.75790884 2.87570966 0.625 4.3125 C0.55539062 5.11300781 0.48578125 5.91351563 0.4140625 6.73828125 C0 9 0 9 -2 12 C-3.125 6.25 -3.125 6.25 -2 4 C-1.34 4 -0.68 4 0 4 C0 2.68 0 1.36 0 0 Z " fill="#083D17" transform="translate(376,201)"/>
<path d="M0 0 C0.66 0 1.32 0 2 0 C2 1.98 2 3.96 2 6 C1.34 6 0.68 6 0 6 C-0.33 7.65 -0.66 9.3 -1 11 C-1.33 11 -1.66 11 -2 11 C-1.125 3.375 -1.125 3.375 0 0 Z " fill="#2B6929" transform="translate(311,164)"/>
<path d="M0 0 C1.33164189 2.66328378 0.65064673 3.42639611 -0.4375 6.125 C-0.72496094 6.84945312 -1.01242187 7.57390625 -1.30859375 8.3203125 C-1.53675781 8.87460938 -1.76492188 9.42890625 -2 10 C-2.99 9.67 -3.98 9.34 -5 9 C-3.35 6.03 -1.7 3.06 0 0 Z " fill="#0B3515" transform="translate(311,208)"/>
<path d="M0 0 C1.15941038 3.47823115 0.70820884 5.45895578 0 9 C-1.32 8.67 -2.64 8.34 -4 8 C-2.68 5.36 -1.36 2.72 0 0 Z " fill="#0D5821" transform="translate(140,129)"/>
<path d="M0 0 C0 3 0 3 -1.75 4.75 C-4.39512283 6.21951268 -5.25035935 6.08021597 -8 5 C-6.37633534 1.75267068 -3.24612161 1.29844864 0 0 Z " fill="#255820" transform="translate(201,129)"/>
<path d="M0 0 C-3.1436725 3.1436725 -5.76148614 1.68363127 -10 1 C-6.37535939 -2.62464061 -4.33962722 -1.99388278 0 0 Z " fill="#063C17" transform="translate(267,25)"/>
<path d="M0 0 C0 0.99 0 1.98 0 3 C-2.70879335 4.35439668 -5.00933268 4.06501451 -8 4 C-7.34 3.67 -6.68 3.34 -6 3 C-6 2.34 -6 1.68 -6 1 C-3.92446352 0.4465236 -2.15634036 0 0 0 Z " fill="#2F5C28" transform="translate(214,123)"/>
<path d="M0 0 C5 4.625 5 4.625 5 8 C3 8 3 8 0.8125 5.125 C0.214375 4.09375 -0.38375 3.0625 -1 2 C-0.67 1.34 -0.34 0.68 0 0 Z " fill="#0B4E1F" transform="translate(143,324)"/>
<path d="M0 0 C3.16115776 1.36983503 3.9927092 1.9890638 6 5 C5.01 5.99 4.02 6.98 3 8 C3 7.34 3 6.68 3 6 C2.34 5.34 1.68 4.68 1 4 C0.375 1.875 0.375 1.875 0 0 Z " fill="#043816" transform="translate(164,351)"/>
<path d="M0 0 C0.66 0 1.32 0 2 0 C1.45276317 3.37462715 0.9451 5.08235 -1 8 C-1.66 7.34 -2.32 6.68 -3 6 C-2.06833174 3.96726926 -1.0650015 1.96615661 0 0 Z " fill="#0C3D17" transform="translate(85,101)"/>
<path d="M0 0 C0 0.66 0 1.32 0 2 C-2.64 2.33 -5.28 2.66 -8 3 C-8 2.34 -8 1.68 -8 1 C-5.29120665 -0.35439668 -2.99066732 -0.06501451 0 0 Z " fill="#30752A" transform="translate(280,106)"/>
<path d="M0 0 C0 0.66 0 1.32 0 2 C-2.875 2.625 -2.875 2.625 -6 3 C-6.66 2.34 -7.32 1.68 -8 1 C-3.375 -1.125 -3.375 -1.125 0 0 Z " fill="#063615" transform="translate(177,28)"/>
<path d="M0 0 C-1.65 1.98 -3.3 3.96 -5 6 C-5.6875 4.1875 -5.6875 4.1875 -6 2 C-3.92203563 -1.01304833 -3.61985048 -1.20661683 0 0 Z " fill="#0A3814" transform="translate(251,389)"/>
<path d="M0 0 C0.33 0.99 0.66 1.98 1 3 C-1.875 3.625 -1.875 3.625 -5 4 C-5.66 3.34 -6.32 2.68 -7 2 C-4.35261084 0.5393715 -3.10551666 0 0 0 Z " fill="#0F5424" transform="translate(253,264)"/>
<path d="M0 0 C0 0.66 0 1.32 0 2 C-2.31 2.33 -4.62 2.66 -7 3 C-7 2.01 -7 1.02 -7 0 C-4.3333581 -1.33332095 -2.83319697 -0.67102033 0 0 Z " fill="#256023" transform="translate(299,103)"/>
<path d="M0 0 C-3.7702436 2.56376565 -6.67402196 1.83191885 -11 1 C-6.8204355 -1.78637633 -4.85331323 -0.79562512 0 0 Z " fill="#115D24" transform="translate(245,80)"/>
<path d="M0 0 C0.66 0 1.32 0 2 0 C2 0.99 2 1.98 2 3 C1.34 2.67 0.68 2.34 0 2 C0 1.34 0 0.68 0 0 Z " fill="#00530F" transform="translate(71,220)"/>
<path d="M0 0 C0.66 0.33 1.32 0.66 2 1 C1.01 1 0.02 1 -1 1 C-0.67 0.67 -0.34 0.34 0 0 Z " fill="#1D3A3A" transform="translate(312,182)"/>
<path d="M0 0 C4 1 4 1 4 1 Z " fill="#00761C" transform="translate(299,99)"/>
<path d="M0 0 C4 1 4 1 4 1 Z " fill="#007100" transform="translate(223,81)"/>
<path d="M0 0 C0.66 0.66 1.32 1.32 2 2 C1.01 2.495 1.01 2.495 0 3 C0 2.01 0 1.02 0 0 Z " fill="#006700" transform="translate(95,76)"/>
<path d="M0 0 C3 1 3 1 3 1 Z " fill="#4B4B4B" transform="translate(213,255)"/>
<path d="M0 0 C2 1 2 1 2 1 Z " fill="#003800" transform="translate(412,433)"/>
<path d="M0 0 C2 1 2 1 2 1 Z " fill="#003800" transform="translate(412,417)"/>
<path d="M0 0 C2 1 2 1 2 1 Z " fill="#003800" transform="translate(412,409)"/>
<path d="M0 0 C2 1 2 1 2 1 Z " fill="#262600" transform="translate(412,401)"/>
<path d="M0 0 C2 1 2 1 2 1 Z " fill="#003800" transform="translate(412,385)"/>
<path d="M0 0 C2 1 2 1 2 1 Z " fill="#000000" transform="translate(185,378)"/>
<path d="M0 0 C2 1 2 1 2 1 Z " fill="#262600" transform="translate(412,377)"/>
<path d="M0 0 C2 1 2 1 2 1 Z " fill="#003800" transform="translate(167,361)"/>
<path d="M0 0 C2 1 2 1 2 1 Z " fill="#003800" transform="translate(412,345)"/>
<path d="M0 0 C2 1 2 1 2 1 Z " fill="#003800" transform="translate(412,337)"/>
<path d="M0 0 C2 1 2 1 2 1 Z " fill="#003800" transform="translate(412,329)"/>
<path d="M0 0 C2 1 2 1 2 1 Z " fill="#003800" transform="translate(412,321)"/>
<path d="M0 0 C2 1 2 1 2 1 Z " fill="#003800" transform="translate(412,305)"/>
<path d="M0 0 C2 1 2 1 2 1 Z " fill="#003800" transform="translate(412,289)"/>
<path d="M0 0 C2 1 2 1 2 1 Z " fill="#003800" transform="translate(412,281)"/>
<path d="M0 0 C2 1 2 1 2 1 Z " fill="#003800" transform="translate(412,273)"/>
<path d="M0 0 C2 1 2 1 2 1 Z " fill="#003800" transform="translate(197,260)"/>
<path d="M0 0 C2 1 2 1 2 1 Z " fill="#003800" transform="translate(412,257)"/>
<path d="M0 0 C2 1 2 1 2 1 Z " fill="#1C381C" transform="translate(192,257)"/>
<path d="M0 0 C2 1 2 1 2 1 Z " fill="#003838" transform="translate(188,257)"/>
<path d="" fill="#008C00" transform="translate(0,0)"/>
<path d="M0 0 C2 1 2 1 2 1 Z " fill="#003800" transform="translate(412,241)"/>
<path d="M0 0 C2 1 2 1 2 1 Z " fill="#00B300" transform="translate(290,236)"/>
<path d="M0 0 C2 1 2 1 2 1 Z " fill="#003800" transform="translate(412,225)"/>
<path d="M0 0 C2 1 2 1 2 1 Z " fill="#00B300" transform="translate(74,221)"/>
<path d="M0 0 C2 1 2 1 2 1 Z " fill="#003800" transform="translate(412,217)"/>
<path d="M0 0 C2 1 2 1 2 1 Z " fill="#003800" transform="translate(71,214)"/>
<path d="M0 0 C2 1 2 1 2 1 Z " fill="#003800" transform="translate(71,212)"/>
<path d="M0 0 C2 1 2 1 2 1 Z " fill="#003800" transform="translate(412,209)"/>
<path d="M0 0 C2 1 2 1 2 1 Z " fill="#003800" transform="translate(412,193)"/>
<path d="M0 0 C2 1 2 1 2 1 Z " fill="#003838" transform="translate(311,191)"/>
<path d="M0 0 C2 1 2 1 2 1 Z " fill="#003800" transform="translate(412,185)"/>
<path d="M0 0 C2 1 2 1 2 1 Z " fill="#003800" transform="translate(412,181)"/>
<path d="" fill="#008C00" transform="translate(0,0)"/>
<path d="M0 0 C2 1 2 1 2 1 Z " fill="#003800" transform="translate(412,161)"/>
<path d="M0 0 C2 1 2 1 2 1 Z " fill="#003838" transform="translate(142,157)"/>
<path d="M0 0 C2 1 2 1 2 1 Z " fill="#003800" transform="translate(412,153)"/>
<path d="M0 0 C2 1 2 1 2 1 Z " fill="#003800" transform="translate(412,145)"/>
<path d="M0 0 C2 1 2 1 2 1 Z " fill="#003800" transform="translate(412,137)"/>
<path d="M0 0 C2 1 2 1 2 1 Z " fill="#003800" transform="translate(412,129)"/>
<path d="M0 0 C2 1 2 1 2 1 Z " fill="#003800" transform="translate(412,121)"/>
<path d="M0 0 C2 1 2 1 2 1 Z " fill="#003800" transform="translate(412,113)"/>
<path d="M0 0 C2 1 2 1 2 1 Z " fill="#003800" transform="translate(412,105)"/>
<path d="M0 0 C2 1 2 1 2 1 Z " fill="#003800" transform="translate(79,101)"/>
<path d="M0 0 C2 1 2 1 2 1 Z " fill="#003800" transform="translate(412,97)"/>
<path d="M0 0 C2 1 2 1 2 1 Z " fill="#004B26" transform="translate(191,91)"/>
<path d="M0 0 C2 1 2 1 2 1 Z " fill="#003800" transform="translate(186,90)"/>
<path d="M0 0 C2 1 2 1 2 1 Z " fill="#003800" transform="translate(412,89)"/>
<path d="M0 0 C2 1 2 1 2 1 Z " fill="#003800" transform="translate(196,86)"/>
<path d="M0 0 C2 1 2 1 2 1 Z " fill="#003800" transform="translate(208,83)"/>
<path d="M0 0 C2 1 2 1 2 1 Z " fill="#003800" transform="translate(412,81)"/>
<path d="M0 0 C2 1 2 1 2 1 Z " fill="#003800" transform="translate(412,73)"/>
<path d="M0 0 C2 1 2 1 2 1 Z " fill="#383800" transform="translate(412,65)"/>
<path d="M0 0 C2 1 2 1 2 1 Z " fill="#003800" transform="translate(412,57)"/>
<path d="" fill="#000000" transform="translate(0,0)"/>
<path d="M0 0 C2 1 2 1 2 1 Z " fill="#383800" transform="translate(412,33)"/>
<path d="M0 0 C2 1 2 1 2 1 Z " fill="#383800" transform="translate(412,25)"/>
<path d="M0 0 C2 1 2 1 2 1 Z " fill="#383800" transform="translate(412,17)"/>
<path d="M0 0 C2 1 2 1 2 1 Z " fill="#383800" transform="translate(412,9)"/>
<path d="" fill="#000000" transform="translate(0,0)"/>
<path d="" fill="#000000" transform="translate(0,0)"/>
<path d="" fill="#000000" transform="translate(0,0)"/>
<path d="" fill="#000000" transform="translate(0,0)"/>
<path d="" fill="#000000" transform="translate(0,0)"/>
<path d="" fill="#000000" transform="translate(0,0)"/>
<path d="" fill="#000000" transform="translate(0,0)"/>
<path d="" fill="#000000" transform="translate(0,0)"/>
<path d="" fill="#000000" transform="translate(0,0)"/>
<path d="" fill="#000000" transform="translate(0,0)"/>
<path d="" fill="#000000" transform="translate(0,0)"/>
<path d="" fill="#000000" transform="translate(0,0)"/>
<path d="" fill="#000000" transform="translate(0,0)"/>
<path d="" fill="#000000" transform="translate(0,0)"/>
<path d="" fill="#000000" transform="translate(0,0)"/>
<path d="" fill="#000000" transform="translate(0,0)"/>
<path d="" fill="#000000" transform="translate(0,0)"/>
<path d="" fill="#000000" transform="translate(0,0)"/>
<path d="" fill="#000000" transform="translate(0,0)"/>
<path d="" fill="#000000" transform="translate(0,0)"/>
<path d="" fill="#000000" transform="translate(0,0)"/>
<path d="" fill="#000000" transform="translate(0,0)"/>
<path d="" fill="#000000" transform="translate(0,0)"/>
<path d="" fill="#000000" transform="translate(0,0)"/>
<path d="" fill="#000000" transform="translate(0,0)"/>
<path d="" fill="#000000" transform="translate(0,0)"/>
<path d="" fill="#000000" transform="translate(0,0)"/>
<path d="" fill="#000000" transform="translate(0,0)"/>
<path d="" fill="#000000" transform="translate(0,0)"/>
<path d="" fill="#000000" transform="translate(0,0)"/>
<path d="" fill="#000000" transform="translate(0,0)"/>
<path d="" fill="#000000" transform="translate(0,0)"/>
<path d="" fill="#000000" transform="translate(0,0)"/>
<path d="" fill="#000000" transform="translate(0,0)"/>
<path d="" fill="#000000" transform="translate(0,0)"/>
<path d="" fill="#000000" transform="translate(0,0)"/>
<path d="" fill="#000000" transform="translate(0,0)"/>
<path d="" fill="#000000" transform="translate(0,0)"/>
<path d="" fill="#000000" transform="translate(0,0)"/>
<path d="" fill="#000000" transform="translate(0,0)"/>
<path d="" fill="#008400" transform="translate(0,0)"/>
<path d="" fill="#000000" transform="translate(0,0)"/>
<path d="" fill="#008400" transform="translate(0,0)"/>
<path d="" fill="#000000" transform="translate(0,0)"/>
<path d="" fill="#000000" transform="translate(0,0)"/>
<path d="" fill="#008400" transform="translate(0,0)"/>
<path d="" fill="#000000" transform="translate(0,0)"/>
<path d="" fill="#000000" transform="translate(0,0)"/>
<path d="" fill="#008400" transform="translate(0,0)"/>
<path d="" fill="#000000" transform="translate(0,0)"/>
<path d="" fill="#000000" transform="translate(0,0)"/>
<path d="" fill="#008400" transform="translate(0,0)"/>
<path d="" fill="#000000" transform="translate(0,0)"/>
<path d="" fill="#000000" transform="translate(0,0)"/>
<path d="" fill="#008400" transform="translate(0,0)"/>
<path d="" fill="#008400" transform="translate(0,0)"/>
<path d="" fill="#000000" transform="translate(0,0)"/>
<path d="" fill="#008400" transform="translate(0,0)"/>
<path d="" fill="#000000" transform="translate(0,0)"/>
<path d="" fill="#008400" transform="translate(0,0)"/>
<path d="" fill="#008400" transform="translate(0,0)"/>
<path d="" fill="#008400" transform="translate(0,0)"/>
<path d="" fill="#000000" transform="translate(0,0)"/>
<path d="" fill="#008400" transform="translate(0,0)"/>
<path d="" fill="#008400" transform="translate(0,0)"/>
<path d="" fill="#000000" transform="translate(0,0)"/>
<path d="" fill="#000000" transform="translate(0,0)"/>
<path d="" fill="#008400" transform="translate(0,0)"/>
<path d="" fill="#008400" transform="translate(0,0)"/>
<path d="" fill="#008400" transform="translate(0,0)"/>
<path d="" fill="#000000" transform="translate(0,0)"/>
<path d="" fill="#008400" transform="translate(0,0)"/>
<path d="" fill="#000000" transform="translate(0,0)"/>
<path d="" fill="#008400" transform="translate(0,0)"/>
<path d="" fill="#008400" transform="translate(0,0)"/>
<path d="" fill="#000000" transform="translate(0,0)"/>
<path d="" fill="#008400" transform="translate(0,0)"/>
<path d="" fill="#008400" transform="translate(0,0)"/>
<path d="" fill="#008400" transform="translate(0,0)"/>
<path d="" fill="#000000" transform="translate(0,0)"/>
<path d="" fill="#008400" transform="translate(0,0)"/>
<path d="" fill="#000000" transform="translate(0,0)"/>
<path d="" fill="#008400" transform="translate(0,0)"/>
<path d="" fill="#008400" transform="translate(0,0)"/>
<path d="" fill="#000000" transform="translate(0,0)"/>
<path d="" fill="#008400" transform="translate(0,0)"/>
<path d="" fill="#008400" transform="translate(0,0)"/>
<path d="" fill="#008400" transform="translate(0,0)"/>
<path d="" fill="#008400" transform="translate(0,0)"/>
<path d="" fill="#000000" transform="translate(0,0)"/>
<path d="" fill="#008400" transform="translate(0,0)"/>
<path d="" fill="#008400" transform="translate(0,0)"/>
<path d="" fill="#008400" transform="translate(0,0)"/>
<path d="" fill="#008400" transform="translate(0,0)"/>
<path d="" fill="#000000" transform="translate(0,0)"/>
<path d="" fill="#000000" transform="translate(0,0)"/>
<path d="" fill="#008400" transform="translate(0,0)"/>
<path d="" fill="#008400" transform="translate(0,0)"/>
<path d="" fill="#008400" transform="translate(0,0)"/>
<path d="" fill="#008400" transform="translate(0,0)"/>
<path d="" fill="#008400" transform="translate(0,0)"/>
<path d="" fill="#008400" transform="translate(0,0)"/>
<path d="" fill="#000000" transform="translate(0,0)"/>
<path d="" fill="#008400" transform="translate(0,0)"/>
<path d="" fill="#008400" transform="translate(0,0)"/>
<path d="" fill="#008400" transform="translate(0,0)"/>
<path d="" fill="#008400" transform="translate(0,0)"/>
<path d="" fill="#008400" transform="translate(0,0)"/>
<path d="" fill="#008400" transform="translate(0,0)"/>
<path d="" fill="#008400" transform="translate(0,0)"/>
<path d="" fill="#008400" transform="translate(0,0)"/>
<path d="" fill="#008400" transform="translate(0,0)"/>
<path d="" fill="#000000" transform="translate(0,0)"/>
<path d="" fill="#008400" transform="translate(0,0)"/>
<path d="" fill="#008400" transform="translate(0,0)"/>
<path d="" fill="#008400" transform="translate(0,0)"/>
<path d="" fill="#008400" transform="translate(0,0)"/>
<path d="" fill="#000000" transform="translate(0,0)"/>
<path d="" fill="#008400" transform="translate(0,0)"/>
<path d="" fill="#000000" transform="translate(0,0)"/>
<path d="" fill="#008400" transform="translate(0,0)"/>
<path d="" fill="#009000" transform="translate(0,0)"/>
<path d="" fill="#008400" transform="translate(0,0)"/>
<path d="" fill="#000000" transform="translate(0,0)"/>
<path d="" fill="#000000" transform="translate(0,0)"/>
<path d="" fill="#000000" transform="translate(0,0)"/>
<path d="" fill="#000000" transform="translate(0,0)"/>
<path d="" fill="#000000" transform="translate(0,0)"/>
<path d="" fill="#008400" transform="translate(0,0)"/>
<path d="" fill="#000000" transform="translate(0,0)"/>
<path d="" fill="#000000" transform="translate(0,0)"/>
</svg>
